# AST/ASF file generated using VICON BodyLanguage
# -----------------------------------------------
:version 1.10
:name VICON
:units
  mass 1.0
  length 0.45
  angle deg
:documentation
   .ast/.asf automatically generated from VICON data using
   VICON BodyBuilder and BodyLanguage model FoxedUp or BRILLIANT.MOD
:root
   order TX TY TZ RX RY RZ
   axis XYZ
   position 0 0 0  
   orientation 0 0 0 
:bonedata
  begin
     id 1 
     name lhipjoint
     direction 0.577973 -0.728611 0.367523 
     length 2.48544 
     axis 0 0 0  XYZ
  end
  begin
     id 2 
     name lfemur
     direction 0.34202 -0.939693 0  
     length 7.1921  
     axis 0 0 20  XYZ
    dof rx ry rz
    limits (-160.0 20.0)
           (-70.0 70.0)
           (-60.0 70.0)
  end
  begin
     id 3 
     name ltibia
     direction 0.34202 -0.939693 0   
     length 7.71059   
     axis 0 0 20   XYZ
    dof rx
    limits (-10.0 170.0)
  end
  begin
     id 4 
     name lfoot
     direction 0.089538 -0.246004 0.965124   
     length 2.19909   
     axis -90 7.62852e-016 20   XYZ
    dof rx rz
    limits (-45.0 90.0)
           (-70.0 20.0)
  end
  begin
     id 5 
     name ltoes
     direction 1.53544e-011 -4.21829e-011 1   
     length 1.10116   
     axis -90 7.62852e-016 20   XYZ
    dof rx
    limits (-90.0 20.0)
  end
  begin
     id 6 
     name rhipjoint
     direction -0.554414 -0.743062 0.374812   
     length 2.4371  
     axis 0 0 0  XYZ 
  end
  begin
     id 7 
     name rfemur
     direction -0.34202 -0.939693 0   
     length 7.47254   
     axis 0 0 -20   XYZ
    dof rx ry rz
    limits (-160.0 20.0)
           (-70.0 70.0)
           (-70.0 60.0)
  end
  begin
     id 8 
     name rtibia
     direction -0.34202 -0.939693 0   
     length 7.65855   
     axis 0 0 -20   XYZ
    dof rx
    limits (-10.0 170.0)
 end
 begin
     id 9 
     name rfoot
     direction -0.133779 -0.367555 0.92033   
     length 2.43006  
     axis -90 -7.62852e-016 -20   XYZ
    dof rx rz
    limits (-45.0 90.0)
           (-20.0 70.0)
  end
  begin
     id 10 
     name rtoes
     direction -1.53563e-011 -4.21889e-011 1   
     length 1.19625   
     axis -90 -7.62852e-016 -20   XYZ
    dof rx
    limits (-90.0 20.0)
  end
  begin
     id 11 
     name lowerback
     direction 0.0249066 0.998043 -0.0573585   
     length 2.08485   
     axis 0 0 0   XYZ
    dof rx ry rz
    limits (-20.0 45.0)
           (-30.0 30.0)
           (-30.0 30.0)
  end
  begin
     id 12 
     name upperback
     direction 0.0237884 0.999673 0.00943178   
     length 2.08515   
     axis 0 0 0   XYZ
    dof rx ry rz
    limits (-20.0 45.0)
           (-30.0 30.0)
           (-30.0 30.0)
  end
  begin
     id 13 
     name thorax
     direction 0.0106671 0.999301 0.0358174   
     length 2.09037   
     axis 0 0 0   XYZ
    dof rx ry rz
    limits (-20.0 45.0)
           (-30.0 30.0)
           (-30.0 30.0)
  end
  begin
     id 14 
     name lowerneck
     direction -0.0580016 0.987052 0.149546   
     length 1.84454   
     axis 0 0 0   XYZ
    dof rx ry rz
    limits (-20.0 45.0)
           (-30.0 30.0)
           (-30.0 30.0)
  end
  begin
     id 15 
     name upperneck
     direction 0.079456 0.981963 -0.171567   
     length 1.88141   
     axis 0 0 0   XYZ
    dof rx ry rz
    limits (-20.0 45.0)
           (-30.0 30.0)
           (-30.0 30.0)
  end
  begin
     id 16
     name head
     direction 0.0262167 0.9967 -0.0768276  
     length 1.89541  
     axis 0 0 0   XYZ
    dof rx ry rz
    limits (-20.0 45.0)
           (-30.0 30.0)
           (-30.0 30.0)
  end
  begin
     id 17 
     name lclavicle
     direction 0.946135 0.322134 -0.0325326  
     length 3.949  
     axis 0 0 0   XYZ
    dof ry rz
    limits (-20.0 10.0)
           (0.0 20.0)
  end
  begin
     id 18 
     name lhumerus
     direction 1 -4.48964e-011 1.94005e-028   
     length 5.10995   
     axis 180 -30 -90   XYZ
    dof rx ry rz
    limits (-60.0 90.0)
           (-90.0 90.0)
           (-90.0 90.0)
  end
  begin
     id 19
     name lradius
     direction 1 -4.48976e-011 2.87852e-027   
     length 3.21207   
     axis 180 -30 -90   XYZ
    dof rx
    limits (-10.0 170.0)
  end
  begin
     id 20
     name lwrist
     direction 1 -4.48963e-011 1.9975e-027   
     length 1.60604   
     axis 2.96054e-016 90 90   XYZ
    dof ry
    limits (-180.0 0.0)
 end
  begin
     id 21 
     name lhand
     direction 1 -4.48919e-011 4.00227e-027   
     length 0.63349   
     axis -2.5488e-015 90 90   XYZ
    dof rx rz
    limits (-90.0 90.0)
           (-45.0 45.0)
  end
  begin
     id 22 
     name lfingers
     direction 1 -4.49037e-011 7.9652e-027   
     length 0.510736   
     axis -5.0975e-015 90 90   XYZ
    dof rx
    limits (0.0 90.0)
  end
  begin
     id 23
     name lthumb
     direction 0.707107 -6.34922e-011 0.707107   
     length 0.733318   
     axis -90 45 -4.48553e-014   XYZ
    dof rx rz
    limits (-45.0 45.0)
           (-45.0 45.0)
  end
  begin
     id 24 
     name rclavicle
     direction -0.940085 0.328911 -0.0897654   
     length 3.93848  
     axis 0 0 0   XYZ 
    dof ry rz
    limits (-10.0 20.0)
           (-20.0 0.0)
  end
  begin
     id 25 
     name rhumerus
     direction -1 -4.48958e-011 3.02044e-027  
     length 5.25109   
     axis 180 30 90   XYZ
    dof rx ry rz
    limits (-90.0 60.0)
           (-90.0 90.0)
           (-90.0 90.0)
  end
  begin
     id 26 
     name rradius
     direction -1 -4.4897e-011 9.78352e-028   
     length 3.28364   
     axis 180 30 90   XYZ
    dof rx
    limits (-10.0 170.0)
  end
  begin
     id 27 
     name rwrist
     direction -1 -4.48943e-011 1.99918e-027   
     length 1.64182   
     axis 2.96054e-016 -90 -90   XYZ
    dof ry
    limits (-180.0 0.0)
  end
  begin
     id 28
     name rhand
     direction -1 -4.49024e-011 3.98478e-027   
     length 0.599745   
     axis -2.5488e-015 -90 -90   XYZ
    dof rx rz
    limits (-90.0 90.0)
           (-45.0 45.0)
  end
  begin
     id 29
     name rfingers
     direction -1 -4.48914e-011 8.00621e-027   
     length 0.48353   
     axis -5.0975e-015 -90 -90   XYZ
    dof rx
    limits (0.0 90.0)
  end
  begin
     id 30
     name rthumb
     direction -0.707107 -6.34992e-011 0.707107   
     length 0.694255   
     axis -90 -45 4.48553e-014   XYZ
    dof rx rz
    limits (-45.0 45.0)
           (-45.0 45.0)
  end
:hierarchy
  begin
    root lhipjoint rhipjoint lowerback
    lhipjoint lfemur
    lfemur ltibia
    ltibia lfoot
    lfoot ltoes
    rhipjoint rfemur
    rfemur rtibia
    rtibia rfoot
    rfoot rtoes
    lowerback upperback
    upperback thorax
    thorax lowerneck lclavicle rclavicle
    lowerneck upperneck
    upperneck head
    lclavicle lhumerus
    lhumerus lradius
    lradius lwrist
    lwrist lhand lthumb
    lhand lfingers
    rclavicle rhumerus
    rhumerus rradius
    rradius rwrist
    rwrist rhand rthumb
    rhand rfingers
  end

#!OML:ASF E:\CV Data\Top Level 1\Subject 1\Session 1\player.ASF
:FULLY-SPECIFIED
:DEGREES
140
root 8.64541 17.652 -11.5373 10.1624 -11.3181 3.89064
lowerback 8.37746 -0.0409252 8.27179
upperback 1.76066 0.886691 8.08296
thorax -2.87561 0.376744 3.72537
lowerneck -17.953 -4.54694 -10.1047
upperneck 10.8379 -3.5371 -0.720905
head 6.40342 -2.21687 0.991279
rclavicle -3.89618e-014 -1.65389e-013
rhumerus -78.6316 -46.1179 -4.61776
rradius 17.3046
rwrist -16.1308
rhand -33.2374 -11.4239
rfingers 7.12502
rthumb -6.44343 -41.3059
lclavicle -3.89618e-014 -1.65389e-013
lhumerus -36.856 1.87454 78.0206
lradius 39.951
lwrist 4.81047
lhand -13.4964 13.3239
lfingers 7.12502
lthumb 12.6147 42.923
rfemur -11.6888 -5.15683 11.7007
rtibia 28.5441
rfoot -22.1548 -25.9446
rtoes -1.51252
lfemur -25.8532 -0.817513 -26.3405
ltibia 21.7292
lfoot -3.80286 -11.0215
ltoes 6.05469
141
root 8.65541 17.6507 -11.508 10.1588 -10.511 3.85946
lowerback 8.1584 0.105737 8.34085
upperback 1.58926 1.08005 8.09569
thorax -2.93369 0.470528 3.68051
lowerneck -17.9125 -4.83595 -10.3066
upperneck 11.0149 -3.89309 -0.606731
head 6.4772 -2.39312 1.01829
rclavicle 8.74653e-015 -1.20861e-013
rhumerus -77.4788 -47.4214 -6.13335
rradius 17.2285
rwrist -16.1103
rhand -33.1933 -11.1895
rfingers 7.12502
rthumb -6.40085 -41.0728
lclavicle 8.74653e-015 -1.20861e-013
lhumerus -36.7778 1.5151 78.7275
lradius 39.9011
lwrist 4.78234
lhand -13.1831 13.0715
lfingers 7.12502
lthumb 12.9167 42.6518
rfemur -11.2045 -5.31174 11.8073
rtibia 28.2257
rfoot -22.248 -26.4922
rtoes -1.25882
lfemur -25.7302 -1.01409 -26.4057
ltibia 21.6846
lfoot -3.87712 -11.5906
ltoes 6.5655
142
root 8.66466 17.6495 -11.4799 10.1484 -9.70227 3.82032
lowerback 7.94742 0.259502 8.40191
upperback 1.41475 1.28343 8.10519
thorax -2.99917 0.568994 3.63643
lowerneck -17.8676 -5.13562 -10.5323
upperneck 11.2038 -4.26107 -0.475462
head 6.55685 -2.57494 1.05246
rclavicle -5.56597e-015 -9.54166e-014
rhumerus -75.9039 -48.7127 -8.1082
rradius 17.2089
rwrist -16.3737
rhand -33.195 -11.0241
rfingers 7.12502
rthumb -6.40246 -40.9074
lclavicle -5.56597e-015 -9.54166e-014
lhumerus -36.6749 1.14022 79.4153
lradius 39.8469
lwrist 4.72896
lhand -12.8409 12.8278
lfingers 7.12502
lthumb 13.2466 42.3868
rfemur -10.7077 -5.45124 11.9307
rtibia 27.8895
rfoot -22.336 -27.0532
rtoes -1.01329
lfemur -25.6045 -1.18757 -26.4622
ltibia 21.6473
lfoot -3.94563 -12.1708
ltoes 7.0851
143
root 8.67343 17.6485 -11.453 10.1397 -8.91566 3.76555
lowerback 7.74129 0.428013 8.45795
upperback 1.241 1.5062 8.11123
thorax -3.06613 0.676882 3.59025
lowerneck -17.8253 -5.44582 -10.7786
upperneck 11.4034 -4.64135 -0.32426
head 6.64351 -2.76206 1.094
rclavicle 3.97569e-015 -1.90833e-014
rhumerus -73.8335 -49.9628 -10.6116
rradius 17.2585
rwrist -16.9774
rhand -33.2178 -10.9164
rfingers 7.12502
rthumb -6.42452 -40.7989
lclavicle 3.97569e-015 -1.90833e-014
lhumerus -36.5514 0.755222 80.079
lradius 39.7996
lwrist 4.63781
lhand -12.5114 12.5215
lfingers 7.12502
lthumb 13.5641 42.0596
rfemur -10.2193 -5.56575 12.0749
rtibia 27.5422
rfoot -22.4093 -27.6191
rtoes -0.788131
lfemur -25.4892 -1.33043 -26.5025
ltibia 21.6232
lfoot -4.00977 -12.7473
ltoes 7.57084
144
root 8.68185 17.6474 -11.4275 10.1302 -8.1485 3.69874
lowerback 7.53789 0.60626 8.51274
upperback 1.06698 1.74175 8.10903
thorax -3.13414 0.790869 3.53554
lowerneck -17.7633 -5.76357 -11.0428
upperneck 11.5997 -5.03528 -0.145385
head 6.7294 -2.95383 1.14543
rclavicle 7.15625e-015 -1.59028e-014
rhumerus -71.0608 -51.0592 -13.9043
rradius 17.4211
rwrist -18.1112
rhand -33.2892 -10.8859
rfingers 7.12502
rthumb -6.4934 -40.7664
lclavicle 7.15625e-015 -1.59028e-014
lhumerus -36.4178 0.363997 80.7092
lradius 39.7683
lwrist 4.50751
lhand -12.1861 12.1861
lfingers 7.12502
lthumb 13.8777 41.7031
rfemur -9.74106 -5.66267 12.2359
rtibia 27.1952
rfoot -22.4854 -28.181
rtoes -0.557201
lfemur -25.3851 -1.44041 -26.5313
ltibia 21.617
lfoot -4.07357 -13.3268
ltoes 8.04566
145
root 8.69014 17.6462 -11.4037 10.1279 -7.41722 3.6204
lowerback 7.33907 0.79928 8.56135
upperback 0.893953 1.99644 8.09835
thorax -3.20294 0.914139 3.47416
lowerneck -17.6924 -6.08882 -11.3178
upperneck 11.7921 -5.44262 0.0558537
head 6.81609 -3.15026 1.20369
rclavicle -7.15625e-015 -2.8625e-014
rhumerus -67.5404 -51.9286 -18.0079
rradius 17.7134
rwrist -19.7715
rhand -33.3671 -10.9217
rfingers 7.12502
rthumb -6.56865 -40.7998
lclavicle -7.15625e-015 -2.8625e-014
lhumerus -36.2709 -0.0252299 81.3041
lradius 39.7544
lwrist 4.3383
lhand -11.8878 11.7779
lfingers 7.12502
lthumb 14.1651 41.275
rfemur -9.29009 -5.73519 12.4097
rtibia 26.8544
rfoot -22.5687 -28.7268
rtoes -0.294802
lfemur -25.3042 -1.51105 -26.5505
ltibia 21.6301
lfoot -4.13535 -13.9013
ltoes 8.48862
146
root 8.69817 17.6451 -11.3819 10.1331 -6.72056 3.53261
lowerback 7.14158 1.00191 8.60273
upperback 0.721772 2.2629 8.0784
thorax -3.27077 1.04311 3.40672
lowerneck -17.5925 -6.41571 -11.598
upperneck 11.9666 -5.85971 0.2764
head 6.89546 -3.34921 1.26803
rclavicle 1.59028e-015 1.59028e-014
rhumerus -63.256 -52.4551 -22.9295
rradius 18.1665
rwrist -21.982
rhand -33.4468 -11.0086
rfingers 7.12502
rthumb -6.64553 -40.8843
lclavicle 1.59028e-015 1.59028e-014
lhumerus -36.1208 -0.401178 81.8566
lradius 39.771
lwrist 4.13679
lhand -11.5854 11.4004
lfingers 7.12502
lthumb 14.4565 40.8768
rfemur -8.87089 -5.7837 12.5953
rtibia 26.5259
rfoot -22.6689 -29.2536
rtoes 0.0233265
lfemur -25.2464 -1.54675 -26.5603
ltibia 21.6577
lfoot -4.19054 -14.4692
ltoes 8.9217
147
root 8.70618 17.6441 -11.3612 10.1325 -6.06642 3.43923
lowerback 6.94632 1.21353 8.63873
upperback 0.56113 2.53916 8.04707
thorax -3.32659 1.17714 3.33019
lowerneck -17.4726 -6.74268 -11.8763
upperneck 12.12 -6.28482 0.514094
head 6.96775 -3.54965 1.33679
rclavicle -1.43125e-014 -4.13472e-014
rhumerus -58.3357 -52.5585 -28.4988
rradius 18.798
rwrist -24.675
rhand -33.5148 -11.1254
rfingers 7.12502
rthumb -6.71118 -40.999
lclavicle -1.43125e-014 -4.13472e-014
lhumerus -35.9688 -0.761544 82.3656
lradius 39.8288
lwrist 3.93282
lhand -11.306 10.986
lfingers 7.12502
lthumb 14.7257 40.4429
rfemur -8.46682 -5.81017 12.7836
rtibia 26.2073
rfoot -22.7779 -29.7558
rtoes 0.377061
lfemur -25.191 -1.55278 -26.5648
ltibia 21.6939
lfoot -4.24554 -15.0189
ltoes 9.33697
148
root 8.71376 17.6435 -11.3425 10.1355 -5.43122 3.34463
lowerback 6.75129 1.42422 8.66518
upperback 0.40745 2.81225 8.00728
thorax -3.37441 1.30982 3.25135
lowerneck -17.3335 -7.06606 -12.1544
upperneck 12.2503 -6.71253 0.768399
head 7.03226 -3.74912 1.41078
rclavicle -2.38542e-015 6.36111e-014
rhumerus -53.0171 -52.2024 -34.4213
rradius 19.6181
rwrist -27.7186
rhand -33.546 -11.2588
rfingers 7.12502
rthumb -6.74128 -41.1315
lclavicle -2.38542e-015 6.36111e-014
lhumerus -35.8164 -1.10078 82.8322
lradius 39.9351
lwrist 3.7536
lhand -11.0385 10.5913
lfingers 7.12502
lthumb 14.9834 40.0293
rfemur -8.08492 -5.82175 12.9779
rtibia 25.8963
rfoot -22.9017 -30.2458
rtoes 0.793642
lfemur -25.1483 -1.5447 -26.5647
ltibia 21.7296
lfoot -4.28198 -15.5567
ltoes 9.76638
149
root 8.72102 17.6433 -11.3247 10.1241 -4.82399 3.25078
lowerback 6.57497 1.63399 8.68509
upperback 0.265124 3.08445 7.95669
thorax -3.41974 1.44212 3.16541
lowerneck -17.1918 -7.384 -12.4216
upperneck 12.3679 -7.13917 1.03192
head 7.09433 -3.9463 1.48589
rclavicle -1.27222e-014 -3.81667e-014
rhumerus -47.5897 -51.4031 -40.3542
rradius 20.6244
rwrist -30.9605
rhand -33.5147 -11.3788
rfingers 7.12502
rthumb -6.71105 -41.2524
lclavicle -1.27222e-014 -3.81667e-014
lhumerus -35.677 -1.4309 83.2591
lradius 40.1033
lwrist 3.64053
lhand -10.8056 10.2312
lfingers 7.12502
lthumb 15.2077 39.6523
rfemur -7.70186 -5.82011 13.1705
rtibia 25.5864
rfoot -23.0196 -30.7205
rtoes 1.23136
lfemur -25.0897 -1.52724 -26.5618
ltibia 21.7591
lfoot -4.31096 -16.0671
ltoes 10.1906
150
root 8.72755 17.6436 -11.3084 10.1071 -4.2279 3.16223
lowerback 6.41245 1.8358 8.69381
upperback 0.128695 3.34617 7.89639
thorax -3.46592 1.56927 3.07691
lowerneck -17.035 -7.69425 -12.6823
upperneck 12.4651 -7.56335 1.30945
head 7.14958 -4.14018 1.56505
rclavicle -2.38542e-014 -6.99722e-014
rhumerus -42.2868 -50.2232 -46.0163
rradius 21.8033
rwrist -34.2527
rhand -33.4018 -11.472
rfingers 7.12502
rthumb -6.6021 -41.349
lclavicle -2.38542e-014 -6.99722e-014
lhumerus -35.5562 -1.75406 83.6487
lradius 40.3384
lwrist 3.62272
lhand -10.6029 9.95935
lfingers 7.12502
lthumb 15.403 39.3655
rfemur -7.32642 -5.8127 13.363
rtibia 25.2805
rfoot -23.1373 -31.1897
rtoes 1.69617
lfemur -25.0264 -1.49992 -26.5607
ltibia 21.7794
lfoot -4.32822 -16.5704
ltoes 10.6111
